<?xml version="1.0" standalone="no"?>
<!DOCTYPE svg PUBLIC "-//W3C//DTD SVG 1.1//EN" "http://www.w3.org/Graphics/SVG/1.1/DTD/svg11.dtd" >
<svg xmlns="http://www.w3.org/2000/svg">
<metadata></metadata>
<defs>
<font id="dosegamedium" horiz-adv-x="1024" >
<font-face units-per-em="2048" ascent="1638" descent="-410" />
<missing-glyph horiz-adv-x="500" />
<glyph />
<glyph />
<glyph unicode="&#xd;" />
<glyph unicode=" " />
<glyph unicode="!" d="M244 629v368h123v121h245v-121h121v-368h-121v-367h-245v367h-123zM367 -104v245h245v-245h-245z" />
<glyph unicode="&#x22;" d="M123 997v367h244v-490h-123v123h-121zM612 874v490h244v-367h-123v-123h-121z" />
<glyph unicode="#" d="M0 141v121h123v367h-123v123h123v245h244v-245h122v245h244v-245h123v-123h-123v-367h123v-121h-123v-245h-244v245h-122v-245h-244v245h-123zM367 262h122v367h-122v-367z" />
<glyph unicode="$" d="M0 18v244h123v-121h121v-123h368v490h-489v121h-123v368h123v121h244v246h245v-246h121v-121h123v-245h-123v122h-121v123h-368v-368h489v-121h123v-490h-123v-122h-121v-244h-245v244h-244v122h-123z" />
<glyph unicode="%" d="M0 -104v245h123v121h121v123h123v123h122v121h123v123h121v122h123v-245h-123v-121h-121v-123h-123v-123h-122v-121h-123v-123h-121v-122h-123zM0 629v245h244v-245h-244zM612 -104v245h244v-245h-244z" />
<glyph unicode="&#x26;" d="M0 18v490h123v121h121v123h-121v245h121v121h368v-121h121v-245h-121v-123h-123v-121h123v121h244v-121h-123v-490h123v-122h-244v122h-123v367h-122v123h-123v-490h245v-122h-366v122h-123zM367 752h122v245h-122v-245z" />
<glyph unicode="'" d="M123 629v123h121v366h245v-366h-122v-123h-244z" />
<glyph unicode="(" d="M244 141v733h123v123h122v121h244v-121h-121v-123h-123v-733h123v-123h121v-122h-244v122h-122v123h-123z" />
<glyph unicode=")" d="M244 18h123v123h122v733h-122v123h-123v121h245v-121h123v-123h121v-733h-121v-123h-123v-122h-245v122z" />
<glyph unicode="*" d="M0 385v123h244v121h-121v123h244v-123h245v123h244v-123h-123v-121h246v-123h-246v-123h123v-121h-244v121h-245v-121h-244v121h121v123h-244z" />
<glyph unicode="+" d="M123 385v123h244v244h245v-244h244v-123h-244v-244h-245v244h-244z" />
<glyph unicode="," d="M244 -225h123v366h245v-366h-123v-123h-245v123z" />
<glyph unicode="-" d="M0 385v123h856v-123h-856z" />
<glyph unicode="." d="M367 -104v245h245v-245h-245z" />
<glyph unicode="/" d="M0 -104v245h123v121h121v123h123v123h122v121h123v123h121v122h123v-245h-123v-121h-121v-123h-123v-123h-122v-121h-123v-123h-121v-122h-123z" />
<glyph unicode="0" d="M0 141v733h123v123h121v121h368v-121h121v-123h123v-733h-123v-123h-121v-122h-368v122h-121v123h-123zM244 141h123v-123h122v123h123v733h-123v123h-122v-123h-123v-733zM367 385v244h122v-244h-122z" />
<glyph unicode="1" d="M123 18h244v734h-244v122h121v123h123v121h245v-1100h244v-122h-733v122z" />
<glyph unicode="2" d="M0 -104v366h123v123h121v123h123v121h122v123h123v245h-368v-123h-244v123h123v121h610v-121h123v-245h-123v-123h-121v-121h-123v-123h-122v-123h-123v-244h368v123h244v-245h-856z" />
<glyph unicode="3" d="M0 18v123h244v-123h368v490h-368v121h368v368h-368v-123h-244v123h123v121h610v-121h123v-368h-123v-121h123v-490h-123v-122h-610v122h-123z" />
<glyph unicode="4" d="M0 385v244h123v123h121v122h123v123h122v121h244v-610h123v-123h-123v-367h123v-122h-489v122h122v367h-489zM244 508h245v244h-122v-123h-123v-121z" />
<glyph unicode="5" d="M0 18v123h244v-123h368v490h-612v610h856v-121h-612v-368h489v-121h123v-490h-123v-122h-610v122h-123z" />
<glyph unicode="6" d="M0 18v856h123v123h121v121h368v-121h-245v-123h-123v-245h489v-121h123v-490h-123v-122h-610v122h-123zM244 18h368v490h-368v-490z" />
<glyph unicode="7" d="M0 874v244h856v-489h-123v-121h-121v-123h-123v-489h-245v489h123v123h122v121h123v368h-368v-123h-244z" />
<glyph unicode="8" d="M0 18v490h123v121h-123v368h123v121h610v-121h123v-368h-123v-121h123v-490h-123v-122h-610v122h-123zM244 18h368v490h-368v-490zM244 629h368v368h-368v-368z" />
<glyph unicode="9" d="M0 629v368h123v121h610v-121h123v-856h-123v-123h-121v-122h-489v122h366v123h123v367h-489v121h-123zM244 629h368v368h-368v-368z" />
<glyph unicode=":" d="M367 -104v245h245v-245h-245zM367 508v244h245v-244h-245z" />
<glyph unicode=";" d="M244 -104h123v245h245v-245h-123v-121h-245v121zM367 508v244h245v-244h-245z" />
<glyph unicode="&#x3c;" d="M123 385v123h121v121h123v123h122v122h123v123h244v-123h-123v-122h-121v-123h-123v-121h-122v-123h122v-123h123v-121h121v-123h123v-122h-244v122h-123v123h-122v121h-123v123h-121z" />
<glyph unicode="=" d="M123 262v123h733v-123h-733zM123 629v123h733v-123h-733z" />
<glyph unicode="&#x3e;" d="M123 18h121v123h123v121h122v123h123v123h-123v121h-122v123h-123v122h-121v123h244v-123h122v-122h123v-123h121v-121h123v-123h-123v-123h-121v-121h-123v-123h-122v-122h-244v122z" />
<glyph unicode="?" d="M0 752v245h123v121h610v-121h123v-245h-123v-123h-121v-367h-245v367h122v123h123v245h-368v-245h-244zM367 -104v245h245v-245h-245z" />
<glyph unicode="@" d="M0 18v856h123v123h610v-123h123v-612h-123v-121h-366v488h245v245h-368v-856h489v-122h-610v122h-123z" />
<glyph unicode="A" d="M0 -104v856h123v122h121v123h123v121h122v-121h123v-123h121v-122h123v-856h-244v489h-368v-489h-244zM244 508h368v244h-123v122h-122v-122h-123v-244z" />
<glyph unicode="B" d="M0 18h123v979h-123v121h733v-121h123v-368h-123v-121h123v-490h-123v-122h-733v122zM367 18h245v490h-245v-490zM367 629h245v368h-245v-368z" />
<glyph unicode="C" d="M0 141v733h123v123h121v121h489v-121h123v-245h-123v122h-121v123h-245v-123h-123v-733h123v-123h245v123h121v121h123v-244h-123v-122h-489v122h-121v123h-123z" />
<glyph unicode="D" d="M0 18h123v979h-123v121h612v-121h121v-123h123v-733h-123v-123h-121v-122h-612v122zM367 18h122v123h123v733h-123v123h-122v-979z" />
<glyph unicode="E" d="M0 18h123v979h-123v121h856v-366h-123v122h-121v123h-245v-368h122v123h123v-367h-123v123h-122v-490h245v123h121v121h123v-366h-856v122z" />
<glyph unicode="F" d="M0 18h123v979h-123v121h856v-366h-123v122h-121v123h-245v-368h122v123h123v-367h-123v123h-122v-490h122v-122h-489v122z" />
<glyph unicode="G" d="M0 141v733h123v123h121v121h489v-121h123v-245h-123v122h-121v123h-245v-123h-123v-733h123v-123h245v-122h-368v122h-121v123h-123zM367 385v123h489v-612h-123v122h-121v367h-245z" />
<glyph unicode="H" d="M0 -104v1222h244v-489h368v489h244v-1222h-244v612h-368v-612h-244z" />
<glyph unicode="I" d="M244 18h123v979h-123v121h489v-121h-121v-979h121v-122h-489v122z" />
<glyph unicode="J" d="M0 18v367h244v-367h245v979h-122v121h489v-121h-123v-979h-121v-122h-489v122h-123z" />
<glyph unicode="K" d="M0 18h123v979h-123v121h367v-489h122v123h123v366h244v-366h-123v-123h-121v-244h121v-123h123v-366h-244v366h-123v123h-122v-489h-367v122z" />
<glyph unicode="L" d="M0 18h123v979h-123v121h489v-121h-122v-979h245v123h121v121h123v-366h-856v122z" />
<glyph unicode="M" d="M0 -104v1222h244v-121h123v-123h122v123h123v121h244v-1222h-244v733h-123v-121h-122v121h-123v-733h-244z" />
<glyph unicode="N" d="M0 -104v1222h244v-121h123v-123h122v-122h123v366h244v-1222h-244v489h-123v123h-122v121h-123v-733h-244z" />
<glyph unicode="O" d="M0 18v979h123v121h610v-121h123v-979h-123v-122h-610v122h-123zM244 18h368v979h-368v-979z" />
<glyph unicode="P" d="M0 18h123v979h-123v121h733v-121h123v-368h-123v-121h-366v-490h122v-122h-489v122zM367 629h245v368h-245v-368z" />
<glyph unicode="Q" d="M0 18v979h123v121h610v-121h123v-979h-123v-243h123v-123h-367v244h-366v122h-123zM244 18h123v244h122v-121h123v856h-368v-979z" />
<glyph unicode="R" d="M0 18h123v979h-123v121h733v-121h123v-368h-123v-244h123v-489h-244v489h-123v123h-122v-612h-367v122zM367 629h245v368h-245v-368z" />
<glyph unicode="S" d="M0 18v244h244v-244h368v367h-123v123h-245v121h-121v123h-123v245h123v121h610v-121h123v-245h-244v245h-368v-245h123v-123h245v-121h121v-123h123v-367h-123v-122h-610v122h-123z" />
<glyph unicode="T" d="M123 752v366h733v-366h-123v122h-121v-856h121v-122h-489v122h123v856h-123v-122h-121z" />
<glyph unicode="U" d="M0 18v1100h244v-1100h368v1100h244v-1100h-123v-122h-610v122h-123z" />
<glyph unicode="V" d="M0 262v856h244v-856h123v-121h122v121h123v856h244v-856h-123v-121h-121v-123h-123v-122h-122v122h-123v123h-121v121h-123z" />
<glyph unicode="W" d="M0 18v1100h244v-856h123v367h122v-367h123v856h244v-1100h-123v-122h-244v245h-122v-245h-244v122h-123z" />
<glyph unicode="X" d="M0 -104v245h123v244h121v244h-121v245h-123v244h244v-244h123v-122h122v122h123v244h244v-244h-123v-245h-121v-244h121v-244h123v-245h-244v245h-123v121h-122v-121h-123v-245h-244z" />
<glyph unicode="Y" d="M123 629v489h244v-489h245v489h244v-489h-123v-121h-121v-490h121v-122h-489v122h123v490h-123v121h-121z" />
<glyph unicode="Z" d="M0 -104v366h123v123h121v123h123v121h122v123h123v245h-368v-123h-121v-122h-123v366h856v-366h-123v-123h-121v-121h-123v-123h-122v-123h-123v-244h368v123h121v121h123v-366h-856z" />
<glyph unicode="[" d="M244 -104v1222h489v-121h-244v-979h244v-122h-489z" />
<glyph unicode="\" d="M0 629v368h123v-123h121v-122h123v-123h122v-121h123v-123h121v-123h123v-366h-123v122h-121v123h-123v121h-122v123h-123v123h-121v121h-123z" />
<glyph unicode="]" d="M244 18h245v979h-245v121h489v-1222h-489v122z" />
<glyph unicode="^" d="M123 1241v123h121v121h368v-121h121v-123h-244v123h-122v-123h-244z" />
<glyph unicode="_" d="M0 -104h979v-121h-979v121z" />
<glyph unicode="`" d="M244 1364v121h245v-121h123v-123h-245v123h-123z" />
<glyph unicode="a" d="M0 18v367h123v123h366v121h-366v123h489v-123h121v-611h123v-122h-244v122h-123v367h-245v-367h245v-122h-366v122h-123z" />
<glyph unicode="b" d="M0 997v121h367v-366h245v-123h121v-121h123v-490h-123v-122h-610v1101h-123zM367 18h245v490h-123v121h-122v-611z" />
<glyph unicode="c" d="M0 18v611h123v123h610v-123h123v-121h-244v121h-368v-611h368v123h244v-123h-123v-122h-610v122h-123z" />
<glyph unicode="d" d="M0 18v490h123v121h121v123h245v245h-122v121h366v-1100h123v-122h-244v122h-123v611h-122v-121h-123v-490h245v-122h-366v122h-123z" />
<glyph unicode="e" d="M0 18v611h123v123h610v-123h123v-244h-612v-367h368v123h244v-123h-123v-122h-610v122h-123zM244 508h368v121h-368v-121z" />
<glyph unicode="f" d="M123 18h121v490h-121v121h121v368h123v121h366v-121h123v-245h-123v122h-121v123h-123v-368h123v-121h-123v-490h123v-122h-489v122z" />
<glyph unicode="g" d="M0 18v611h123v123h366v-123h-245v-611h245v611h123v123h244v-123h-123v-977h-121v-123h-489v123h-123v123h244v-123h245v244h-366v122h-123z" />
<glyph unicode="h" d="M0 18h123v979h-123v121h367v-489h122v-121h-122v-612h-367v122zM489 629v123h244v-123h123v-733h-244v733h-123z" />
<glyph unicode="i" d="M244 18h123v611h-123v123h368v-734h121v-122h-489v122zM367 874v244h245v-244h-245z" />
<glyph unicode="j" d="M123 -104h244v-244h245v977h-123v123h367v-1100h-123v-123h-489v123h-121v244zM612 874v244h244v-244h-244z" />
<glyph unicode="k" d="M0 18h123v979h-123v121h367v-610h122v121h123v123h244v-123h-123v-121h-121v-246h121v-121h123v-245h-244v245h-123v121h-122v-366h-367v122z" />
<glyph unicode="l" d="M244 18h123v979h-123v121h368v-1100h121v-122h-489v122z" />
<glyph unicode="m" d="M0 -104v856h367v-123h122v123h244v-123h123v-733h-244v612h-123v-490h-122v490h-123v-612h-244z" />
<glyph unicode="n" d="M0 629v123h244v-123h123v-733h-244v733h-123zM367 629v123h366v-123h123v-733h-244v733h-245z" />
<glyph unicode="o" d="M0 18v611h123v123h610v-123h123v-611h-123v-122h-610v122h-123zM244 18h368v611h-368v-611z" />
<glyph unicode="p" d="M0 -348h123v977h-123v123h244v-123h123v-611h245v611h-245v123h366v-123h123v-611h-123v-122h-366v-244h122v-123h-489v123z" />
<glyph unicode="q" d="M0 18v611h123v123h366v-123h-245v-611h245v611h123v123h244v-123h-123v-977h123v-123h-489v123h122v244h-366v122h-123z" />
<glyph unicode="r" d="M0 18h123v611h-123v123h244v-123h123v123h366v-123h123v-244h-244v244h-123v-121h-122v-490h122v-122h-489v122z" />
<glyph unicode="s" d="M0 18v123h244v-123h368v123h-123v121h-245v123h-121v123h-123v121h123v123h610v-123h123v-121h-244v121h-368v-121h123v-123h245v-123h121v-121h123v-123h-123v-122h-610v122h-123z" />
<glyph unicode="t" d="M0 629v123h244v245h123v121h122v-366h244v-123h-244v-611h123v123h244v-123h-123v-122h-366v122h-123v611h-244z" />
<glyph unicode="u" d="M0 18v734h244v-734h245v-122h-366v122h-123zM489 18v734h244v-734h123v-122h-244v122h-123z" />
<glyph unicode="v" d="M0 141v611h244v-611h123v-123h122v123h123v611h244v-611h-123v-123h-121v-122h-368v122h-121v123h-123z" />
<glyph unicode="w" d="M0 18v734h244v-611h123v367h122v-367h123v611h244v-734h-123v-122h-244v122h-122v-122h-244v122h-123z" />
<glyph unicode="x" d="M0 18h123v123h121v367h-121v121h-123v123h244v-123h123v-121h122v121h123v123h244v-123h-123v-121h-121v-367h121v-123h123v-122h-244v122h-123v123h-122v-123h-123v-122h-244v122z" />
<glyph unicode="y" d="M0 18v734h244v-734h368v734h244v-977h-123v-123h-121v-123h-612v123h489v123h123v121h-489v122h-123z" />
<glyph unicode="z" d="M0 -104v245h123v121h121v123h123v123h122v121h-245v-121h-244v244h856v-123h-123v-121h-121v-123h-123v-123h-122v-121h-123v-123h368v123h244v-245h-856z" />
<glyph unicode="{" d="M123 508v121h244v368h122v121h367v-121h-244v-368h-123v-121h123v-490h244v-122h-367v122h-122v490h-244z" />
<glyph unicode="|" d="M367 -104v1222h245v-1222h-245z" />
<glyph unicode="}" d="M123 18h244v490h122v121h-122v368h-244v121h366v-121h123v-368h244v-121h-244v-490h-123v-122h-366v122z" />
<glyph unicode="~" d="M0 1241v123h123v121h366v-121h123v121h244v-121h-123v-123h-366v123h-123v-123h-244z" />
<glyph unicode="&#xa0;" />
<glyph unicode="&#xa1;" d="M244 18v367h123v367h245v-367h121v-367h-121v-122h-245v122h-123zM367 874v244h245v-244h-245z" />
<glyph unicode="&#xa2;" d="M0 262v490h123v122h244v244h245v-244h121v-122h123v-123h-244v123h-368v-490h368v123h244v-123h-123v-121h-121v-245h-245v245h-244v121h-123z" />
<glyph unicode="&#xa3;" d="M0 18h123v490h-123v121h123v368h121v121h368v-121h121v-245h-121v122h-123v123h-122v-368h122v-121h-122v-490h245v123h244v-123h-123v-122h-733v122z" />
<glyph unicode="&#xa4;" d="M0 18h123v123h-123v488h123v123h-123v122h244v-122h368v122h244v-122h-123v-123h123v-488h-123v-123h123v-122h-244v122h-368v-122h-244v122zM244 141h368v488h-368v-488z" />
<glyph unicode="&#xa5;" d="M123 262v123h244v123h-244v121h244v123h-123v122h-121v244h244v-244h245v244h244v-244h-123v-122h-121v-123h244v-121h-244v-123h244v-123h-244v-366h-245v366h-244z" />
<glyph unicode="&#xa6;" d="M367 -104v612h245v-612h-245zM367 752v612h245v-612h-245z" />
<glyph unicode="&#xa7;" d="M0 18v123h244v-123h368v123h-123v121h-245v123h-121v123h-123v244h123v122h121v123h-121v121h-123v123h123v123h610v-123h123v-123h-244v123h-368v-123h123v-121h245v-123h121v-122h123v-244h-123v-123h-121v-123h121v-121h123v-123h-123v-122h-610v122h-123zM244 508 h123v-123h122v123h123v244h-123v122h-122v-122h-123v-244z" />
<glyph unicode="&#xa9;" d="M0 18v979h123v-979h-123zM123 18h610v-122h-610v122zM123 997v121h610v-121h-610zM244 262v490h123v-490h-123zM367 141v121h245v-121h-245zM367 752v122h245v-122h-245zM733 18v979h123v-979h-123z" />
<glyph unicode="&#xaa;" d="M123 385v123h733v-123h-733zM123 752v245h121v121h489v-366h123v-123h-244v123h-123v245h-122v-245h122v-123h-245v123h-121z" />
<glyph unicode="&#xab;" d="M0 141v121h123v123h121v123h245v-123h-122v-123h-123v-121h123v-123h122v-122h-245v122h-121v123h-123zM367 141v121h122v123h123v123h244v-123h-123v-123h-121v-121h121v-123h123v-122h-244v122h-123v123h-122z" />
<glyph unicode="&#xad;" d="M0 385v123h856v-123h-856z" />
<glyph unicode="&#xae;" d="M0 18v979h123v-979h-123zM123 18h610v-122h-610v122zM123 997v121h610v-121h-610zM244 141v733h245v-122h-122v-244h122v-123h-122v-244h-123zM489 141v244h123v-244h-123zM489 508v244h123v-244h-123zM733 18v979h123v-979h-123z" />
<glyph unicode="&#xb0;" d="M123 752v245h121v121h368v-121h121v-245h-121v-123h-368v123h-121zM367 752h122v245h-122v-245z" />
<glyph unicode="&#xb1;" d="M123 18v123h733v-123h-733zM123 629v123h244v245h245v-245h244v-123h-244v-244h-245v244h-244z" />
<glyph unicode="&#xb2;" d="M123 385v123h121v121h123v123h122v122h123v123h-245v-123h-244v123h121v121h489v-121h123v-123h-123v-122h-121v-123h-123v-121h244v121h123v-244h-733z" />
<glyph unicode="&#xb3;" d="M123 385v123h489v244h-368v122h368v123h-489v121h610v-121h123v-123h-123v-122h123v-244h-123v-123h-610z" />
<glyph unicode="&#xb5;" d="M0 -348h123v1100h244v-734h245v734h244v-734h-123v-122h-366v-244h-123v-123h-244v123z" />
<glyph unicode="&#xb6;" d="M0 629v368h123v121h856v-1222h-246v1101h-121v-1101h-245v612h-244v121h-123zM244 629h123v368h-123v-368z" />
<glyph unicode="&#xb9;" d="M244 385v123h123v366h-123v123h123v121h245v-610h121v-123h-489z" />
<glyph unicode="&#xba;" d="M123 385v123h610v-123h-610zM123 752v245h121v121h368v-121h121v-245h-121v-123h-368v123h-121zM367 752h122v245h-122v-245z" />
<glyph unicode="&#xbb;" d="M0 18h123v123h121v121h-121v123h-123v123h244v-123h123v-123h122v-121h-122v-123h-123v-122h-244v122zM367 18h122v123h123v121h-123v123h-122v123h245v-123h121v-123h123v-121h-123v-123h-121v-122h-245v122z" />
<glyph unicode="&#xbc;" d="M0 141v244h123v123h121v121h123v123h122v122h123v123h121v121h123v-244h-123v-122h-121v-123h-123v-121h-122v-123h-123v-123h-121v-121h-123zM0 1118v123h123v123h244v-612h-244v366h-123zM244 18v123h123v121h122v123h123v123h244v-367h123v-123h-123v-243h-244v243 h-368zM612 141h121v121h-121v-121z" />
<glyph unicode="&#xbd;" d="M0 141v244h123v123h121v121h123v123h122v122h123v123h121v121h123v-244h-123v-122h-121v-123h-123v-121h-122v-123h-123v-123h-121v-121h-123zM0 1118v123h123v123h244v-612h-244v366h-123zM244 -104h123v122h122v123h123v121h-245v123h366v-123h123v-121h-123v-123h-121 v-122h244v-121h-612v121z" />
<glyph unicode="&#xbe;" d="M0 141v244h123v123h121v121h123v123h122v122h123v123h121v121h123v-244h-123v-122h-121v-123h-123v-121h-122v-123h-123v-123h-121v-121h-123zM0 752v122h244v123h-121v121h121v123h-244v123h367v-123h122v-123h-122v-121h122v-123h-122v-122h-367zM244 18v123h123v121 h122v123h123v123h244v-367h123v-123h-123v-243h-244v243h-368zM612 141h121v121h-121v-121z" />
<glyph unicode="&#xbf;" d="M123 18v367h121v123h123v244h245v-244h-123v-123h-122v-367h366v244h246v-244h-123v-122h-612v122h-121zM367 874v244h245v-244h-245z" />
<glyph unicode="&#xc0;" d="M0 -104v856h123v122h121v123h123v121h122v-121h123v-123h121v-122h123v-856h-244v489h-368v-489h-244zM123 1364v121h244v-121h122v-123h-245v123h-121zM244 508h368v244h-123v122h-122v-122h-123v-244z" />
<glyph unicode="&#xc1;" d="M0 -104v856h123v122h121v123h123v121h122v-121h123v-123h121v-122h123v-856h-244v489h-368v-489h-244zM244 508h368v244h-123v122h-122v-122h-123v-244zM367 1241v123h122v121h244v-121h-121v-123h-245z" />
<glyph unicode="&#xc2;" d="M0 -104v856h123v122h121v123h123v121h122v-121h123v-123h121v-122h123v-856h-244v489h-368v-489h-244zM123 1241v123h121v121h368v-121h121v-123h-244v123h-122v-123h-244zM244 508h368v244h-123v122h-122v-122h-123v-244z" />
<glyph unicode="&#xc3;" d="M0 -104v856h123v122h121v123h123v121h122v-121h123v-123h121v-122h123v-856h-244v489h-368v-489h-244zM0 1241v123h123v121h366v-121h123v121h244v-121h-123v-123h-366v123h-123v-123h-244zM244 508h368v244h-123v122h-122v-122h-123v-244z" />
<glyph unicode="&#xc4;" d="M0 -104v856h123v122h121v123h123v121h122v-121h123v-123h121v-122h123v-856h-244v489h-368v-489h-244zM0 1241v123h244v-123h-244zM244 508h368v244h-123v122h-122v-122h-123v-244zM612 1241v123h244v-123h-244z" />
<glyph unicode="&#xc5;" d="M0 -104v856h123v122h121v123h123v121h-123v123h-121v123h121v121h368v-121h121v-123h-121v-123h-123v-121h123v-123h121v-122h123v-856h-244v489h-368v-489h-244zM244 508h368v244h-123v122h-122v-122h-123v-244zM367 1241h122v123h-122v-123z" />
<glyph unicode="&#xc6;" d="M0 -104v978h123v123h121v121h612v-121h-123v-368h123v-121h-123v-490h123v-122h-367v612h-245v-612h-244zM244 629h245v368h-122v-123h-123v-245z" />
<glyph unicode="&#xc7;" d="M0 141v733h123v123h121v121h489v-121h123v-245h-123v122h-121v123h-245v-123h-123v-733h123v-123h245v123h121v121h123v-244h-123v-122h-121v-121h121v-123h-121v-123h-489v123h366v123h-122v121h-123v122h-121v123h-123z" />
<glyph unicode="&#xc8;" d="M0 18h123v979h-123v121h856v-366h-123v122h-121v123h-245v-368h122v123h123v-367h-123v123h-122v-490h245v123h121v121h123v-366h-856v122zM244 1364v121h245v-121h123v-123h-245v123h-123z" />
<glyph unicode="&#xc9;" d="M0 18h123v979h-123v121h856v-366h-123v122h-121v123h-245v-368h122v123h123v-367h-123v123h-122v-490h245v123h121v121h123v-366h-856v122zM367 1241v123h122v121h244v-121h-121v-123h-245z" />
<glyph unicode="&#xca;" d="M0 18h123v979h-123v121h856v-366h-123v122h-121v123h-245v-368h122v123h123v-367h-123v123h-122v-490h245v123h121v121h123v-366h-856v122zM123 1241v123h121v121h368v-121h121v-123h-244v123h-122v-123h-244z" />
<glyph unicode="&#xcb;" d="M0 18h123v979h-123v121h856v-366h-123v122h-121v123h-245v-368h122v123h123v-367h-123v123h-122v-490h245v123h121v121h123v-366h-856v122zM0 1241v123h244v-123h-244zM612 1241v123h244v-123h-244z" />
<glyph unicode="&#xcc;" d="M244 18h123v979h-123v121h489v-121h-121v-979h121v-122h-489v122zM244 1364v121h245v-121h123v-123h-245v123h-123z" />
<glyph unicode="&#xcd;" d="M244 18h123v979h-123v121h489v-121h-121v-979h121v-122h-489v122zM367 1241v123h122v121h244v-121h-121v-123h-245z" />
<glyph unicode="&#xce;" d="M123 1241v123h121v121h489v-121h123v-123h-244v123h-245v-123h-244zM244 18h123v979h-123v121h489v-121h-121v-979h121v-122h-489v122z" />
<glyph unicode="&#xcf;" d="M123 1241v123h244v-123h-244zM244 18h123v979h-123v121h489v-121h-121v-979h121v-122h-489v122zM612 1241v123h244v-123h-244z" />
<glyph unicode="&#xd1;" d="M0 -104v1222h244v-121h123v-123h122v-122h123v366h244v-1222h-244v489h-123v123h-122v121h-123v-733h-244zM0 1241v123h123v121h366v-121h123v121h244v-121h-123v-123h-366v123h-123v-123h-244z" />
<glyph unicode="&#xd2;" d="M0 18v979h123v121h610v-121h123v-979h-123v-122h-610v122h-123zM123 1364v121h244v-121h122v-123h-245v123h-121zM244 18h368v979h-368v-979z" />
<glyph unicode="&#xd3;" d="M0 18v979h123v121h610v-121h123v-979h-123v-122h-610v122h-123zM244 18h368v979h-368v-979zM367 1241v123h122v121h244v-121h-121v-123h-245z" />
<glyph unicode="&#xd4;" d="M0 18v979h123v121h610v-121h123v-979h-123v-122h-610v122h-123zM123 1241v123h121v121h368v-121h121v-123h-244v123h-122v-123h-244zM244 18h368v979h-368v-979z" />
<glyph unicode="&#xd5;" d="M0 18v979h123v121h610v-121h123v-979h-123v-122h-610v122h-123zM0 1241v123h123v121h366v-121h123v121h244v-121h-123v-123h-366v123h-123v-123h-244zM244 18h368v979h-368v-979z" />
<glyph unicode="&#xd6;" d="M0 18v979h123v121h610v-121h123v-979h-123v-122h-610v122h-123zM0 1241v123h244v-123h-244zM244 18h368v979h-368v-979zM612 1241v123h244v-123h-244z" />
<glyph unicode="&#xd9;" d="M0 18v1100h244v-1100h368v1100h244v-1100h-123v-122h-610v122h-123zM244 1364v121h245v-121h123v-123h-245v123h-123z" />
<glyph unicode="&#xda;" d="M0 18v1100h244v-1100h368v1100h244v-1100h-123v-122h-610v122h-123zM367 1241v123h122v121h244v-121h-121v-123h-245z" />
<glyph unicode="&#xdb;" d="M0 18v1100h244v-1100h368v1100h244v-1100h-123v-122h-610v122h-123zM123 1241v123h121v121h368v-121h121v-123h-244v123h-122v-123h-244z" />
<glyph unicode="&#xdc;" d="M0 18v1100h244v-1100h368v1100h244v-1100h-123v-122h-610v122h-123zM0 1241v123h244v-123h-244zM612 1241v123h244v-123h-244z" />
<glyph unicode="&#xdd;" d="M123 629v489h244v-489h245v489h244v-489h-123v-121h-121v-490h121v-122h-489v122h123v490h-123v121h-121zM367 1241v123h122v121h244v-121h-121v-123h-245z" />
<glyph unicode="&#xdf;" d="M0 -104v1101h123v121h489v-121h121v-368h-121v-121h121v-123h123v-367h-123v-122h-244v122h123v367h-123v123h-122v121h122v368h-245v-1101h-244z" />
<glyph unicode="&#xe0;" d="M0 18v367h123v123h366v121h-366v123h489v-123h121v-611h123v-122h-244v122h-123v367h-245v-367h245v-122h-366v122h-123zM0 1118v123h244v-123h123v-121h122v-123h-245v123h-121v121h-123z" />
<glyph unicode="&#xe1;" d="M0 18v367h123v123h366v121h-366v123h489v-123h121v-611h123v-122h-244v122h-123v367h-245v-367h245v-122h-366v122h-123zM244 874v123h123v121h122v123h244v-123h-121v-121h-123v-123h-245z" />
<glyph unicode="&#xe2;" d="M0 18v367h123v123h366v121h-366v123h489v-123h121v-611h123v-122h-244v122h-123v367h-245v-367h245v-122h-366v122h-123zM123 874v123h121v121h123v123h122v-123h123v-121h121v-123h-244v123h-122v-123h-244z" />
<glyph unicode="&#xe3;" d="M0 18v367h123v123h366v121h-366v123h489v-123h121v-611h123v-122h-244v122h-123v367h-245v-367h245v-122h-366v122h-123zM0 874v123h123v121h366v-121h123v121h244v-121h-123v-123h-366v123h-123v-123h-244z" />
<glyph unicode="&#xe4;" d="M0 18v367h123v123h366v121h-366v123h489v-123h121v-611h123v-122h-244v122h-123v367h-245v-367h245v-122h-366v122h-123zM0 874v123h244v-123h-244zM489 874v123h244v-123h-244z" />
<glyph unicode="&#xe5;" d="M0 18v367h123v123h366v121h-366v123h489v-123h121v-611h123v-122h-244v122h-123v367h-245v-367h245v-122h-366v122h-123zM123 997v121h121v123h368v-123h121v-121h-121v-123h-368v123h-121zM367 997h122v121h-122v-121z" />
<glyph unicode="&#xe6;" d="M0 18v244h123v123h121v244h-244v123h367v-123h122v-244h123v244h-123v123h244v-123h123v-367h-244v-244h244v-122h-367v122h-122v244h-123v-244h123v-122h-244v122h-123z" />
<glyph unicode="&#xe7;" d="M0 18v611h123v123h610v-123h123v-121h-244v121h-368v-611h368v123h244v-123h-123v-122h-121v-121h121v-123h-121v-123h-489v123h366v123h-122v121h-244v122h-123z" />
<glyph unicode="&#xe8;" d="M0 18v611h123v123h610v-123h123v-244h-612v-367h368v123h244v-123h-123v-122h-610v122h-123zM123 1118v123h244v-123h122v-121h123v-123h-245v123h-123v121h-121zM244 508h368v121h-368v-121z" />
<glyph unicode="&#xe9;" d="M0 18v611h123v123h610v-123h123v-244h-612v-367h368v123h244v-123h-123v-122h-610v122h-123zM244 508h368v121h-368v-121zM367 874v123h122v121h123v123h244v-123h-123v-121h-121v-123h-245z" />
<glyph unicode="&#xea;" d="M0 18v611h123v123h610v-123h123v-244h-612v-367h368v123h244v-123h-123v-122h-610v122h-123zM123 874v123h121v121h123v123h122v-123h123v-121h121v-123h-244v123h-122v-123h-244zM244 508h368v121h-368v-121z" />
<glyph unicode="&#xeb;" d="M0 18v611h123v123h610v-123h123v-244h-612v-367h368v123h244v-123h-123v-122h-610v122h-123zM0 874v123h244v-123h-244zM244 508h368v121h-368v-121zM612 874v123h244v-123h-244z" />
<glyph unicode="&#xec;" d="M123 1118v123h244v-123h122v-121h123v-123h-245v123h-123v121h-121zM244 18h123v611h-123v123h368v-734h121v-122h-489v122z" />
<glyph unicode="&#xed;" d="M244 18h123v611h-123v123h368v-734h121v-122h-489v122zM367 874v123h122v121h123v123h244v-123h-123v-121h-121v-123h-245z" />
<glyph unicode="&#xee;" d="M123 874v123h121v121h123v123h245v-123h121v-121h123v-123h-244v123h-245v-123h-244zM244 18h123v611h-123v123h368v-734h121v-122h-489v122z" />
<glyph unicode="&#xef;" d="M123 874v123h244v-123h-244zM244 18h123v611h-123v123h368v-734h121v-122h-489v122zM612 874v123h244v-123h-244z" />
<glyph unicode="&#xf1;" d="M0 629v123h244v-123h123v-733h-244v733h-123zM0 874v123h123v121h366v-121h123v121h244v-121h-123v-123h-366v123h-123v-123h-244zM367 629v123h366v-123h123v-733h-244v733h-245z" />
<glyph unicode="&#xf2;" d="M0 18v611h123v123h610v-123h123v-611h-123v-122h-610v122h-123zM123 1118v123h244v-123h122v-121h123v-123h-245v123h-123v121h-121zM244 18h368v611h-368v-611z" />
<glyph unicode="&#xf3;" d="M0 18v611h123v123h610v-123h123v-611h-123v-122h-610v122h-123zM244 18h368v611h-368v-611zM367 874v123h122v121h123v123h244v-123h-123v-121h-121v-123h-245z" />
<glyph unicode="&#xf4;" d="M0 18v611h123v123h610v-123h123v-611h-123v-122h-610v122h-123zM123 874v123h121v121h123v123h122v-123h123v-121h121v-123h-244v123h-122v-123h-244zM244 18h368v611h-368v-611z" />
<glyph unicode="&#xf5;" d="M0 18v611h123v123h610v-123h123v-611h-123v-122h-610v122h-123zM0 874v123h123v121h366v-121h123v121h244v-121h-123v-123h-366v123h-123v-123h-244zM244 18h368v611h-368v-611z" />
<glyph unicode="&#xf6;" d="M0 18v611h123v123h610v-123h123v-611h-123v-122h-610v122h-123zM0 874v123h244v-123h-244zM244 18h368v611h-368v-611zM612 874v123h244v-123h-244z" />
<glyph unicode="&#xf7;" d="M123 508v121h733v-121h-733zM367 262v123h245v-123h-245zM367 752v122h245v-122h-245z" />
<glyph unicode="&#xf9;" d="M0 18v734h244v-734h245v-122h-366v122h-123zM0 1118v123h244v-123h123v-121h122v-123h-245v123h-121v121h-123zM489 18v734h244v-734h123v-122h-244v122h-123z" />
<glyph unicode="&#xfa;" d="M0 18v734h244v-734h245v-122h-366v122h-123zM244 874v123h123v121h122v123h244v-123h-121v-121h-123v-123h-245zM489 18v734h244v-734h123v-122h-244v122h-123z" />
<glyph unicode="&#xfb;" d="M0 18v734h244v-734h245v-122h-366v122h-123zM0 874v123h123v121h121v123h245v-123h123v-121h121v-123h-244v123h-245v-123h-244zM489 18v734h244v-734h123v-122h-244v122h-123z" />
<glyph unicode="&#xfc;" d="M0 18v734h244v-734h245v-122h-366v122h-123zM0 874v123h244v-123h-244zM489 18v734h244v-734h123v-122h-244v122h-123zM489 874v123h244v-123h-244z" />
<glyph unicode="&#xfd;" d="M0 18v734h244v-734h368v734h244v-977h-123v-123h-121v-123h-612v123h489v123h123v121h-489v122h-123zM367 874v123h122v121h123v123h244v-123h-123v-121h-121v-123h-245z" />
<glyph unicode="&#xff;" d="M0 18v734h244v-734h368v734h244v-977h-123v-123h-121v-123h-612v123h489v123h123v121h-489v122h-123zM0 874v123h244v-123h-244zM612 874v123h244v-123h-244z" />
<glyph unicode="&#x178;" d="M123 629v489h244v-489h245v489h244v-489h-123v-121h-121v-490h121v-122h-489v122h123v490h-123v121h-121zM123 1241v123h244v-123h-244zM612 1241v123h244v-123h-244z" />
<glyph unicode="&#x2000;" horiz-adv-x="742" />
<glyph unicode="&#x2001;" horiz-adv-x="1485" />
<glyph unicode="&#x2002;" horiz-adv-x="742" />
<glyph unicode="&#x2003;" horiz-adv-x="1485" />
<glyph unicode="&#x2004;" horiz-adv-x="495" />
<glyph unicode="&#x2005;" horiz-adv-x="371" />
<glyph unicode="&#x2006;" horiz-adv-x="247" />
<glyph unicode="&#x2007;" horiz-adv-x="247" />
<glyph unicode="&#x2008;" horiz-adv-x="185" />
<glyph unicode="&#x2009;" horiz-adv-x="297" />
<glyph unicode="&#x200a;" horiz-adv-x="82" />
<glyph unicode="&#x2010;" d="M0 385v123h856v-123h-856z" />
<glyph unicode="&#x2011;" d="M0 385v123h856v-123h-856z" />
<glyph unicode="&#x2012;" d="M0 385v123h856v-123h-856z" />
<glyph unicode="&#x2013;" horiz-adv-x="1192" d="M0 385v123h1024v-123h-1024z" />
<glyph unicode="&#x2014;" horiz-adv-x="2216" d="M0 385v123h2048v-123h-2048z" />
<glyph unicode="&#x202f;" horiz-adv-x="297" />
<glyph unicode="&#x205f;" horiz-adv-x="371" />
<glyph unicode="&#x20ac;" d="M0 141v733h123v123h121v121h489v-121h123v-123h-244v123h-245v-123h-123v-122h368v-123h-368v-121h245v-123h-245v-244h123v-123h245v123h244v-123h-123v-122h-489v122h-121v123h-123z" />
<glyph unicode="&#xe000;" horiz-adv-x="747" d="M0 0v748h748v-748h-748z" />
</font>
</defs>
</svg>
